<svg xmlns="http://www.w3.org/2000/svg" viewBox="0 0 400 240" role="img">
  <title>Federal Donor and Consumer States map thumbnail</title>
  <rect width="400" height="240" fill="#1a1210"/>
  <!-- simplified US state silhouettes as colored blobs -->
  <!-- Pacific coast / West -->
  <rect x="18" y="30" width="38" height="90" rx="3" fill="#1a5276"/>
  <rect x="22" y="125" width="32" height="50" rx="3" fill="#1a5276"/>
  <!-- Mountain West -->
  <rect x="60" y="35" width="30" height="80" rx="3" fill="#8b2a2a"/>
  <rect x="93" y="35" width="28" height="80" rx="3" fill="#8b2a2a"/>
  <rect x="60" y="118" width="30" height="45" rx="3" fill="#8b2a2a"/>
  <rect x="93" y="118" width="28" height="45" rx="3" fill="#a57ec8"/>
  <!-- Plains -->
  <rect x="125" y="30" width="26" height="55" rx="3" fill="#8b2a2a"/>
  <rect x="154" y="30" width="26" height="55" rx="3" fill="#8b2a2a"/>
  <rect x="125" y="88" width="26" height="48" rx="3" fill="#8b2a2a"/>
  <rect x="154" y="88" width="26" height="48" rx="3" fill="#8b2a2a"/>
  <!-- Midwest -->
  <rect x="184" y="28" width="26" height="45" rx="3" fill="#8b2a2a"/>
  <rect x="213" y="28" width="26" height="45" rx="3" fill="#1a5276"/>
  <rect x="242" y="28" width="24" height="45" rx="3" fill="#1a5276"/>
  <rect x="184" y="76" width="26" height="45" rx="3" fill="#8b2a2a"/>
  <rect x="213" y="76" width="26" height="45" rx="3" fill="#1a5276"/>
  <!-- South -->
  <rect x="125" y="140" width="30" height="48" rx="3" fill="#8b2a2a"/>
  <rect x="158" y="140" width="50" height="48" rx="3" fill="#8b2a2a"/>
  <rect x="211" y="140" width="38" height="48" rx="3" fill="#8b2a2a"/>
  <!-- TX -->
  <rect x="125" y="155" width="55" height="60" rx="3" fill="#8b2a2a"/>
  <!-- Southeast -->
  <rect x="242" y="76" width="26" height="40" rx="3" fill="#8b2a2a"/>
  <rect x="271" y="76" width="24" height="40" rx="3" fill="#8b2a2a"/>
  <rect x="242" y="119" width="26" height="42" rx="3" fill="#8b2a2a"/>
  <rect x="271" y="119" width="24" height="42" rx="3" fill="#8b2a2a"/>
  <!-- Northeast -->
  <rect x="298" y="28" width="22" height="38" rx="3" fill="#4a235a"/>
  <rect x="323" y="28" width="22" height="38" rx="3" fill="#1a5276"/>
  <rect x="348" y="28" width="22" height="38" rx="3" fill="#1a5276"/>
  <rect x="298" y="69" width="22" height="38" rx="3" fill="#1a5276"/>
  <rect x="323" y="69" width="22" height="38" rx="3" fill="#1a5276"/>
  <rect x="348" y="69" width="22" height="38" rx="3" fill="#4a235a"/>
  <!-- Mid-Atlantic -->
  <rect x="298" y="110" width="22" height="38" rx="3" fill="#a57ec8"/>
  <rect x="323" y="110" width="22" height="38" rx="3" fill="#9ac4e0"/>
  <!-- FL -->
  <rect x="278" y="163" width="22" height="52" rx="3" fill="#8b2a2a"/>
  <!-- Legend strip -->
  <rect x="0" y="210" width="400" height="30" fill="#0d0908" opacity="0.85"/>
  <rect x="12" y="219" width="10" height="10" rx="1" fill="#1a5276"/>
  <text x="26" y="229" font-family="Georgia, serif" font-size="9" fill="#c8b99a">Blue donor</text>
  <rect x="90" y="219" width="10" height="10" rx="1" fill="#9ac4e0"/>
  <text x="104" y="229" font-family="Georgia, serif" font-size="9" fill="#c8b99a">Blue consumer</text>
  <rect x="192" y="219" width="10" height="10" rx="1" fill="#e8a0a0"/>
  <text x="206" y="229" font-family="Georgia, serif" font-size="9" fill="#c8b99a">Red donor</text>
  <rect x="268" y="219" width="10" height="10" rx="1" fill="#8b2a2a"/>
  <text x="282" y="229" font-family="Georgia, serif" font-size="9" fill="#c8b99a">Red consumer</text>
  <!-- Title -->
  <text x="200" y="198" text-anchor="middle" font-family="Georgia, serif" font-size="11" fill="#c8b99a" opacity="0.9">FY2022 · 13 donor states · 38 consumer states</text>
</svg>
